<svg xmlns="http://www.w3.org/2000/svg" width="24" height="24" viewBox="0 0 24 24">
  <g id="vuesax_bold_code" data-name="vuesax/bold/code" transform="translate(-492 -252)">
    <g id="code">
      <path id="Vector" d="M14.19,0H5.81C2.17,0,0,2.17,0,5.81v8.37C0,17.83,2.17,20,5.81,20h8.37c3.64,0,5.81-2.17,5.81-5.81V5.81C20,2.17,17.83,0,14.19,0ZM7.94,11.27a7.077,7.077,0,0,1-2.72,2.4.764.764,0,0,1-.33.08.748.748,0,0,1-.33-1.42A5.5,5.5,0,0,0,6.7,10.44a.785.785,0,0,0,0-.88A5.647,5.647,0,0,0,4.56,7.67a.747.747,0,1,1,.66-1.34,7.077,7.077,0,0,1,2.72,2.4A2.263,2.263,0,0,1,7.94,11.27ZM15,13.75H11a.75.75,0,0,1,0-1.5h4a.75.75,0,0,1,0,1.5Z" transform="translate(494 254)" fill="#fff"/>
      <path id="Vector-2" data-name="Vector" d="M0,0H24V24H0Z" transform="translate(516 276) rotate(180)" fill="none" opacity="0"/>
    </g>
  </g>
</svg>
