<svg xmlns="http://www.w3.org/2000/svg" width="24" height="24" viewBox="0 0 24 24">
  <g id="vuesax_linear_designtools" data-name="vuesax/linear/designtools" transform="translate(-682 -190)">
    <g id="designtools" transform="translate(682 190)">
      <path id="Vector" d="M15.54,1.93A33.727,33.727,0,0,1,6.91,13.58L4.94,15.16a3.588,3.588,0,0,1-.78.45,3.728,3.728,0,0,0-.04-.57,3.916,3.916,0,0,0-1.16-2.29A4.084,4.084,0,0,0,.6,11.56a4.007,4.007,0,0,0-.6-.01,2.614,2.614,0,0,1,.49-.84L2.05,8.74A33.629,33.629,0,0,1,13.7.1a1.4,1.4,0,0,1,1.52.31A1.358,1.358,0,0,1,15.54,1.93Z" transform="translate(6.27 2.01)" fill="none" stroke="#6666d4" stroke-linecap="round" stroke-linejoin="round" stroke-width="1.5"/>
      <path id="Vector-2" data-name="Vector" d="M8.445,4.064a4.17,4.17,0,0,1-1.21,2.95A4.156,4.156,0,0,1,4.8,8.174l-2.46.27a2.114,2.114,0,0,1-2.33-2.35l.27-2.46A4.077,4.077,0,0,1,4.295,0a5.956,5.956,0,0,1,.6.01A4.025,4.025,0,0,1,7.255,1.2a3.916,3.916,0,0,1,1.16,2.29C8.425,3.684,8.445,3.874,8.445,4.064Z" transform="translate(1.985 13.556)" fill="none" stroke="#6666d4" stroke-linecap="round" stroke-linejoin="round" stroke-width="1.5"/>
      <path id="Vector-3" data-name="Vector" d="M4.73,4.73A4.733,4.733,0,0,0,0,0" transform="translate(9.51 9.74)" fill="none" stroke="#6666d4" stroke-linecap="round" stroke-linejoin="round" stroke-width="1.5"/>
      <path id="Vector-4" data-name="Vector" d="M6.65,0l.74.73c1.49,1.49,1.49,2.96,0,4.45L4.43,8.14A2.776,2.776,0,0,1,0,8.14" transform="translate(13.47 12.73)" fill="none" stroke="#6666d4" stroke-linecap="round" stroke-width="1.5"/>
      <path id="Vector-5" data-name="Vector" d="M1.1,8.513c-1.47-1.49-1.47-2.96,0-4.45L4.063,1.1a2.776,2.776,0,0,1,4.43,0l.74.74" transform="translate(2.007 1.997)" fill="none" stroke="#6666d4" stroke-linecap="round" stroke-width="1.5"/>
      <path id="Vector-6" data-name="Vector" d="M3.7,0,0,3.7" transform="translate(7.55 3.85)" fill="none" stroke="#6666d4" stroke-linecap="round" stroke-width="1.5"/>
      <path id="Vector-7" data-name="Vector" d="M2.96,0,0,2.95" transform="translate(17.16 12.73)" fill="none" stroke="#6666d4" stroke-linecap="round" stroke-width="1.5"/>
      <path id="Vector-8" data-name="Vector" d="M0,0H24V24H0Z" fill="none" opacity="0"/>
    </g>
  </g>
</svg>
